HIERARCHY
ROOT Hips
{
 OFFSET 0.000000 0.000000 0.000000
 CHANNELS 6 Xposition Yposition Zposition Yrotation Xrotation Zrotation
 JOINT Chest
 {
  OFFSET 0.000000 9.585900 0.002600
  CHANNELS 3 Yrotation Xrotation Zrotation
  JOINT Chest2
  {
   OFFSET 0.000000 9.601200 -0.005300
   CHANNELS 3 Yrotation Xrotation Zrotation
   JOINT Chest3
   {
    OFFSET 0.000000 9.561800 0.000000
    CHANNELS 3 Yrotation Xrotation Zrotation
    JOINT Chest4
    {
     OFFSET 0.000000 9.552100 0.000000
     CHANNELS 3 Yrotation Xrotation Zrotation
     JOINT Neck
     {
      OFFSET 0.000000 14.453000 0.000000
      CHANNELS 3 Yrotation Xrotation Zrotation
      JOINT Head
      {
       OFFSET 0.000000 8.936500 -0.011300
       CHANNELS 3 Yrotation Xrotation Zrotation
       End Site
       {
        OFFSET 0.000000 17.073600 -0.006000
       }
      }
     }
     JOINT RightCollar
     {
      OFFSET -2.921100 9.558500 0.000000
      CHANNELS 3 Yrotation Xrotation Zrotation
      JOINT RightShoulder
      {
       OFFSET -13.519700 0.000000 0.000000
       CHANNELS 3 Yrotation Xrotation Zrotation
       JOINT RightElbow
       {
        OFFSET 0.000000 -29.696600 0.000000
        CHANNELS 3 Yrotation Xrotation Zrotation
        JOINT RightWrist
        {
         OFFSET 0.000000 -24.004700 0.000000
         CHANNELS 3 Yrotation Xrotation Zrotation
         End Site
         {
          OFFSET 0.000000 -17.728500 0.000000
         }
        }
       }
      }
     }
     JOINT LeftCollar
     {
      OFFSET 2.921100 9.558500 0.000000
      CHANNELS 3 Yrotation Xrotation Zrotation
      JOINT LeftShoulder
      {
       OFFSET 13.519700 0.000000 0.000000
       CHANNELS 3 Yrotation Xrotation Zrotation
       JOINT LeftElbow
       {
        OFFSET 0.000000 -29.696600 0.000000
        CHANNELS 3 Yrotation Xrotation Zrotation
        JOINT LeftWrist
        {
         OFFSET 0.000000 -24.004700 0.000000
         CHANNELS 3 Yrotation Xrotation Zrotation
         End Site
         {
          OFFSET 0.000000 -17.728500 0.000000
         }
        }
       }
      }
     }
    }
   }
  }
 }
 JOINT RightHip
 {
  OFFSET -7.771700 -0.012900 -0.001300
  CHANNELS 3 Yrotation Xrotation Zrotation
  JOINT RightKnee
  {
   OFFSET 0.000000 -40.869800 0.001200
   CHANNELS 3 Yrotation Xrotation Zrotation
   JOINT RightAnkle
   {
    OFFSET 0.000000 -39.717900 0.002100
    CHANNELS 3 Yrotation Xrotation Zrotation
    JOINT RightToe
    {
     OFFSET 0.000000 -4.965400 11.033500
     CHANNELS 3 Yrotation Xrotation Zrotation
     End Site
     {
      OFFSET 0.000000 -1.423100 5.872300
     }
    }
   }
  }
 }
 JOINT LeftHip
 {
  OFFSET 7.771700 -0.012900 -0.001300
  CHANNELS 3 Yrotation Xrotation Zrotation
  JOINT LeftKnee
  {
   OFFSET 0.000000 -40.869800 0.001200
   CHANNELS 3 Yrotation Xrotation Zrotation
   JOINT LeftAnkle
   {
    OFFSET 0.000000 -39.717900 0.002100
    CHANNELS 3 Yrotation Xrotation Zrotation
    JOINT LeftToe
    {
     OFFSET 0.000000 -4.965400 11.033500
     CHANNELS 3 Yrotation Xrotation Zrotation
     End Site
     {
      OFFSET 0.000000 -1.423100 5.872300
     }
    }
   }
  }
 }
}
MOTION
Frames: 5
Frame Time: 0.008333
0.000000 85.388000 0.000000 0.000000 -5.767877 0.000000 0.000000 11.653817 0.000000 0.000000 -5.885947 0.000000 0.000000 -0.000000 0.000000 0.000000 -0.000000 0.000000 0.000000 12.528835 0.000000 0.000000 0.711642 0.000000 0.000000 -0.000000 0.000000 0.000000 0.000000 -90.000000 0.000000 -2.309062 0.000000 0.000000 2.309062 0.000000 0.000000 -0.000000 0.000000 0.000000 -0.000000 90.000000 0.000000 -2.309062 0.000000 0.000000 2.309062 0.000000 0.000000 8.520406 0.000000 0.000000 1.905762 0.000000 -0.000000 -4.658285 0.000000 0.000000 -0.000000 0.000000 0.000000 8.520406 0.000000 0.000000 1.905762 0.000000 -0.000000 -4.658285 0.000000 0.000000 -0.000000 0.000000
-4.478973 55.330355 29.449688 178.116438 -28.439411 -10.488738 0.798841 12.561928 5.560129 0.302824 7.181314 2.190709 0.379159 8.937174 2.752765 0.285802 7.169148 2.190026 0.868566 19.519279 -1.387121 1.196955 -5.112635 -1.652148 0.393714 -0.007845 -2.916972 -12.616005 -7.468452 4.192557 42.356746 -75.967493 -27.335194 10.068627 -3.927257 -23.285045 -10.561713 2.821767 -2.808719 5.772204 -4.293013 -1.627928 -78.555644 -73.237306 84.955476 9.694813 -11.556527 -1.995833 -19.263121 -37.556088 8.772893 22.640536 86.650989 19.051932 0.449275 -17.121890 -0.050629 -0.025976 0.487192 -0.011299 -17.479892 -49.167642 18.791541 171.307781 79.290653 166.749167 -1.498457 -16.072411 0.661978 -0.808472 -2.332359 -0.363882
-4.478356 55.330051 29.450359 178.111949 -28.437201 -10.492684 0.811835 12.567335 5.565925 0.308559 7.182480 2.192389 0.430082 8.973662 2.753553 0.266098 7.151235 2.197193 0.947539 19.478333 -1.359603 1.266240 -5.159315 -1.638384 0.343476 -0.047007 -2.909397 -12.598729 -7.449138 4.185263 42.869466 -75.891654 -27.769056 10.057805 -4.544182 -24.051490 -10.593379 2.789469 -2.793840 5.752382 -4.277776 -1.614733 -78.531410 -73.257627 84.914277 9.689937 -11.690418 -1.908434 -19.263971 -37.559500 8.785691 22.440584 86.655124 18.853045 0.460075 -17.113898 -0.052507 -0.027038 0.484985 -0.010633 -17.467125 -49.175942 18.786236 171.270324 79.283314 166.723013 -1.494542 -16.071969 0.664449 -0.813672 -2.336103 -0.366443
-4.476960 55.330297 29.450526 178.105110 -28.440674 -10.500231 0.840229 12.582507 5.578309 0.305205 7.177340 2.195275 0.468688 8.997257 2.755229 0.316654 7.181988 2.198645 0.916625 19.403937 -1.331541 1.395488 -5.212598 -1.637709 0.241813 -0.120824 -2.896249 -12.571224 -7.324098 4.122722 43.597646 -75.913037 -28.432523 10.057226 -5.218636 -24.870418 -10.665766 2.714084 -2.752868 5.718397 -4.255021 -1.606023 -78.561403 -73.190531 84.894588 9.730973 -11.845449 -1.783842 -19.263812 -37.554759 8.804462 22.245716 86.656569 18.659021 0.461505 -17.106543 -0.053545 -0.026382 0.484023 -0.009496 -17.469229 -49.173478 18.797991 171.260621 79.274740 166.712320 -1.486803 -16.074611 0.669784 -0.819074 -2.339720 -0.369597
-4.476107 55.329835 29.452097 178.105383 -28.434249 -10.507841 0.863167 12.591166 5.585540 0.316491 7.181765 2.198905 0.481587 9.000614 2.760272 0.328366 7.186747 2.201769 0.930518 19.365713 -1.312240 1.528672 -5.273560 -1.643069 0.188622 -0.158496 -2.893912 -12.557934 -7.224577 4.080721 44.456672 -75.873463 -29.217602 10.075603 -5.940991 -25.724311 -10.657160 2.664333 -2.717587 5.647453 -4.222492 -1.603659 -78.628239 -73.084736 84.934433 9.783895 -12.002652 -1.652675 -19.274588 -37.560047 8.821380 22.120987 86.657645 18.535743 0.464198 -17.099079 -0.057078 -0.026686 0.483262 -0.009195 -17.480070 -49.181516 18.810061 171.246788 79.268119 166.697658 -1.483940 -16.076629 0.672886 -0.818037 -2.342284 -0.369961
